<svg xmlns="http://www.w3.org/2000/svg" xmlns:xlink="http://www.w3.org/1999/xlink" width="2400" height="270" viewBox="0 0 2400 270">
  <defs>
    <clipPath id="clip-path">
      <rect id="長方形_732" data-name="長方形 732" width="2400" height="270" fill="none"/>
    </clipPath>
  </defs>
  <g id="パス-sp-top" clip-path="url(#clip-path)">
    <g id="マスクグループ_8" transform="translate(0 -2204.959)">
      <path id="パス_1051" d="M2399.524,2452.166c-185.17-150.007-264.638-197.728-518.17-197.916s-342.191,192.83-699.192,197.916c-274.851-2.888-426.638-195.781-675.766-197.916C142.055,2248.1-1.115,2452.166-1.115,2452.166V22.793S281.141,213.049,506.4,213.049,905.715,22.479,1182.162,22.793s457.851,190.256,699.192,190.256,412.34-81.125,518.17-190.256C2401.758,183.789,2401.63,2442.119,2399.524,2452.166Z" transform="translate(1.115 -22.793)" fill="#d3e5f4"/>
      <path id="パス_1051-2" data-name="パス_1051" d="M1438.351,2254.249c-334.787-12.37-507.511,197.916-507.511,197.916V22.793" transform="translate(-930.84 -22.792)" fill="#d3e5f4"/>
    </g>
  </g>
</svg>
