<svg xmlns="http://www.w3.org/2000/svg" xmlns:xlink="http://www.w3.org/1999/xlink" width="2400" height="270" viewBox="0 0 2400 270">
  <defs>
    <clipPath id="clip-path">
      <rect id="長方形_732" data-name="長方形 732" width="2400" height="270" fill="none"/>
    </clipPath>
  </defs>
  <g id="パス-sp-top" clip-path="url(#clip-path)">
    <g id="マスクグループ_8" transform="translate(-2.266 45.586)">
      <path id="パス_1051" d="M.513,22.793C185.684,172.8,265.152,220.521,518.684,220.709S860.875,27.879,1217.875,22.793c274.851,2.888,426.638,195.781,675.766,197.916,364.341,6.153,507.511-197.916,507.511-197.916V2452.165s-282.255-190.256-507.511-190.256-399.319,190.57-675.766,190.256-457.851-190.256-699.192-190.256S106.343,2343.035.513,2452.165C-1.721,2291.17-1.593,32.84.513,22.793Z" transform="translate(1.115 -22.793)" fill="#d3e5f4"/>
      <path id="パス_1051-2" data-name="パス_1051" d="M930.841,220.709c334.787,12.37,507.511-197.916,507.511-197.916V2452.165" transform="translate(963.915 -22.793)" fill="#d3e5f4"/>
    </g>
  </g>
</svg>
