<svg xmlns="http://www.w3.org/2000/svg" xmlns:xlink="http://www.w3.org/1999/xlink" width="740" height="84.628" viewBox="0 0 740 84.628">
  <defs>
    <clipPath id="clip-path">
      <rect id="長方形_733" data-name="長方形 733" width="740" height="84.628" fill="none"/>
    </clipPath>
  </defs>
  <g id="パス-sp-top" clip-path="url(#clip-path)">
    <g id="マスクグループ_8" transform="translate(-0.699 14.288)">
      <path id="パス_1051" d="M.147,7.26c57.094,47.018,81.6,61.975,159.769,62.034S265.425,8.854,375.5,7.26c84.746.905,131.547,61.365,208.361,62.034C696.2,71.223,740.344,7.26,740.344,7.26V768.712s-87.029-59.633-156.482-59.633S460.738,768.811,375.5,768.712s-141.171-59.633-215.584-59.633S32.778,734.507.147,768.712C-.542,718.25-.5,10.409.147,7.26Z" transform="translate(0.355 -7.26)" fill="#d3e5f4"/>
      <path id="パス_1051-2" data-name="パス_1051" d="M296.49,69.294C399.716,73.171,452.972,7.26,452.972,7.26V768.712" transform="translate(287.726 -7.26)" fill="#d3e5f4"/>
    </g>
  </g>
</svg>
